<?xml version="1.0" encoding="UTF-8"?>
<svg id="Calque_2" data-name="Calque 2" xmlns="http://www.w3.org/2000/svg" viewBox="0 0 182.96 92.84">
  <defs>
    <style>
      .cls-1 {
        fill: #daa520;
        stroke-width: 0px;
      }
    </style>
  </defs>
  <g id="Calque_1-2" data-name="Calque 1">
    <path class="cls-1" d="M182.95,42.37c.06.63-.19,1.15-.34,1.7-.9,3.25-1.83,6.5-2.74,9.75-1.03,3.65-2.05,7.3-3.08,10.95-1.43,5.09-2.88,10.18-4.32,15.27-1.19,4.26-2.39,8.53-3.58,12.79-22.83-12.79-49.26-20.1-77.41-20.1s-54.59,7.31-77.42,20.11c-1.29-4.61-2.57-9.22-3.87-13.82-1.41-5.01-2.84-10.03-4.25-15.04-1.46-5.17-2.91-10.35-4.36-15.53-.45-1.6-.9-3.21-1.35-4.81-.08-.28-.16-.57-.22-.85-.02-.11-.02-.28.04-.35.05-.06.19-.08.26-.04.18.11.34.25.51.38,4.17,3.44,8.45,6.62,12.9,9.37,2.66,1.63,5.37,3.08,8.24,3.97.95.29,1.92.46,2.9.52,1.82.11,3.3-.8,4.59-2.39,1.05-1.3,1.89-2.82,2.63-4.43,1.36-2.94,2.36-6.1,3.24-9.33,1.6-5.89,2.82-11.92,3.79-18.04.67-4.19,1.26-8.39,1.74-12.62.02-.12.03-.26.07-.37s.11-.24.19-.27c.07-.02.2.05.25.13.19.35.36.71.52,1.08,2.06,4.66,4.29,9.19,6.61,13.64,2.15,4.13,4.43,8.14,6.89,11.96,1.62,2.53,3.38,4.87,5.21,7.11,1.43,1.75,2.98,3.32,4.74,4.49.96.64,1.96,1.13,3.04,1.38,1.2.27,2.34.03,3.42-.62,1.53-.92,2.83-2.27,3.95-3.91,2.49-3.61,4.39-7.73,6.09-12.04,2.13-5.4,3.9-11,5.52-16.7,1.35-4.73,2.57-9.51,3.66-14.36.09-.4.2-.81.32-1.2.02-.06.1-.12.15-.13.05,0,.14.04.15.09.08.19.14.4.18.6.72,3.25,1.5,6.46,2.35,9.65,1.6,6.11,3.39,12.13,5.46,17.98,1.43,4.04,3.05,7.95,4.94,11.65,1.1,2.13,2.34,4.11,3.78,5.85,1.37,1.67,2.91,2.89,4.8,3.22.39.07.77.08,1.16,0,1.5-.29,2.89-.99,4.18-2.06,1.46-1.21,2.82-2.6,4.11-4.11,2.65-3.13,4.94-6.69,7.14-10.34,3.39-5.6,6.43-11.52,9.28-17.61.77-1.63,1.51-3.29,2.26-4.94.05-.11.1-.22.15-.33.11-.21.19-.52.41-.49.25.04.22.37.26.62.32,2.44.62,4.89.95,7.33.53,3.87,1.15,7.72,1.88,11.54,1.02,5.23,2.15,10.41,3.76,15.38.71,2.21,1.53,4.35,2.49,6.38.5,1.06,1.07,2.05,1.69,2.98.68,1.05,1.53,1.87,2.44,2.53.64.46,1.34.64,2.07.69,1.18.07,2.34-.12,3.49-.46,2.01-.6,3.94-1.48,5.83-2.53,1.77-.98,3.53-2.01,5.24-3.18,3.32-2.26,6.58-4.69,9.75-7.3.4-.32.72-.87,1.26-.78Z"/>
  </g>
</svg>