<!--?xml version="1.0" encoding="utf-8"?-->
<!-- Generator: Adobe Illustrator 28.2.0, SVG Export Plug-In . SVG Version: 6.00 Build 0)  -->
<svg version="1.1" id="Calque_1" xmlns="http://www.w3.org/2000/svg" xmlns:xlink="http://www.w3.org/1999/xlink" x="0px" y="0px" viewBox="0 0 465.3 722.4" style="enable-background:new 0 0 465.3 722.4;" xml:space="preserve" width="465.29998779296875" height="722.4000244140625">
<style type="text/css">
	.st0{fill:#FFFFFF;stroke:#FFFFFF;stroke-width:4;stroke-linecap:round;stroke-linejoin:round;stroke-miterlimit:10;}
	.st1{fill:#DAA520;stroke:#DAA520;stroke-width:4;stroke-linecap:round;stroke-linejoin:round;stroke-miterlimit:10;}
	.st2{fill:#DAA520;stroke:#DAA520;stroke-width:5;stroke-linecap:round;stroke-linejoin:round;stroke-miterlimit:10;}

	/***************************************************
    * Generated by SVG Artista on 6/16/2024, 10:06:35 AM
    * MIT license (https://opensource.org/licenses/MIT)
    * W. https://svgartista.net
    **************************************************/

    @-webkit-keyframes animate-svg-stroke-1{0%{stroke-dashoffset:2451.72802734375px;stroke-dasharray:2451.72802734375px}100%{stroke-dashoffset:0;stroke-dasharray:2451.72802734375px}}@keyframes animate-svg-stroke-1{0%{stroke-dashoffset:2451.72802734375px;stroke-dasharray:2451.72802734375px}100%{stroke-dashoffset:0;stroke-dasharray:2451.72802734375px}}@-webkit-keyframes animate-svg-fill-1{0%{fill:transparent}100%{fill:rgb(255,255,255)}}@keyframes animate-svg-fill-1{0%{fill:transparent}100%{fill:rgb(255,255,255)}}.svg-elem-1{-webkit-animation:animate-svg-stroke-1 1s cubic-bezier(0.47,0,0.745,0.715) 0s both,animate-svg-fill-1 0.7s cubic-bezier(0.47,0,0.745,0.715) 0.8s both;animation:animate-svg-stroke-1 1s cubic-bezier(0.47,0,0.745,0.715) 0s both,animate-svg-fill-1 0.7s cubic-bezier(0.47,0,0.745,0.715) 0.8s both}@-webkit-keyframes animate-svg-stroke-2{0%{stroke-dashoffset:905.202392578125px;stroke-dasharray:905.202392578125px}100%{stroke-dashoffset:0;stroke-dasharray:905.202392578125px}}@keyframes animate-svg-stroke-2{0%{stroke-dashoffset:905.202392578125px;stroke-dasharray:905.202392578125px}100%{stroke-dashoffset:0;stroke-dasharray:905.202392578125px}}@-webkit-keyframes animate-svg-fill-2{0%{fill:transparent}100%{fill:rgb(218,165,32)}}@keyframes animate-svg-fill-2{0%{fill:transparent}100%{fill:rgb(218,165,32)}}.svg-elem-2{-webkit-animation:animate-svg-stroke-2 1s cubic-bezier(0.47,0,0.745,0.715) 0.12s both,animate-svg-fill-2 0.7s cubic-bezier(0.47,0,0.745,0.715) 0.9s both;animation:animate-svg-stroke-2 1s cubic-bezier(0.47,0,0.745,0.715) 0.12s both,animate-svg-fill-2 0.7s cubic-bezier(0.47,0,0.745,0.715) 0.9s both}@-webkit-keyframes animate-svg-stroke-3{0%{stroke-dashoffset:397.5547790527344px;stroke-dasharray:397.5547790527344px}100%{stroke-dashoffset:0;stroke-dasharray:397.5547790527344px}}@keyframes animate-svg-stroke-3{0%{stroke-dashoffset:397.5547790527344px;stroke-dasharray:397.5547790527344px}100%{stroke-dashoffset:0;stroke-dasharray:397.5547790527344px}}@-webkit-keyframes animate-svg-fill-3{0%{fill:transparent}100%{fill:rgb(218,165,32)}}@keyframes animate-svg-fill-3{0%{fill:transparent}100%{fill:rgb(218,165,32)}}.svg-elem-3{-webkit-animation:animate-svg-stroke-3 1s cubic-bezier(0.47,0,0.745,0.715) 0.24s both,animate-svg-fill-3 0.7s cubic-bezier(0.47,0,0.745,0.715) 1s both;animation:animate-svg-stroke-3 1s cubic-bezier(0.47,0,0.745,0.715) 0.24s both,animate-svg-fill-3 0.7s cubic-bezier(0.47,0,0.745,0.715) 1s both}
	
</style>
<path class="st0 svg-elem-1" d="M232.6,162.2c-122,0-220.9,97.3-220.9,217.3v107.3c0,120,98.9,217.3,220.9,217.3s220.9-97.3,220.9-217.3V379.5
	C453.5,259.5,354.6,162.2,232.6,162.2L232.6,162.2z M345.9,471.3c0,61.5-50.7,111.4-113.2,111.4s-113.2-49.9-113.2-111.4V395
	c0-61.5,50.7-111.4,113.2-111.4S345.9,333.5,345.9,395V471.3z"></path>
<path class="st1 svg-elem-2" d="M361.6,77.9c0.1,0.9-0.3,1.6-0.5,2.4c-1.3,4.6-2.6,9.2-3.9,13.7c-1.5,5.1-2.9,10.3-4.3,15.4
	c-2,7.2-4.1,14.4-6.1,21.5c-1.7,6-3.4,12-5,18c-32.2-18-69.4-28.3-109.1-28.3s-77,10.3-109.2,28.3c-1.8-6.5-3.6-13-5.5-19.5
	c-2-7.1-4-14.1-6-21.2c-2.1-7.3-4.1-14.6-6.2-21.9c-0.6-2.3-1.3-4.5-1.9-6.8c-0.1-0.4-0.2-0.8-0.3-1.2c0-0.2,0-0.4,0.1-0.5
	c0.1-0.1,0.3-0.1,0.4-0.1c0.2,0.2,0.5,0.4,0.7,0.5c5.9,4.9,11.9,9.3,18.2,13.2c3.8,2.3,7.6,4.3,11.6,5.6c1.3,0.4,2.7,0.6,4.1,0.7
	c2.6,0.2,4.7-1.1,6.5-3.4c1.5-1.8,2.7-4,3.7-6.2c1.9-4.1,3.3-8.6,4.6-13.2c2.3-8.3,4-16.8,5.3-25.4c0.9-5.9,1.8-11.8,2.4-17.8
	c0-0.2,0-0.4,0.1-0.5c0-0.2,0.2-0.3,0.3-0.4c0.1,0,0.3,0.1,0.4,0.2c0.3,0.5,0.5,1,0.7,1.5c2.9,6.6,6,13,9.3,19.2
	c3,5.8,6.2,11.5,9.7,16.9c2.3,3.6,4.8,6.9,7.3,10c2,2.5,4.2,4.7,6.7,6.3c1.4,0.9,2.8,1.6,4.3,1.9c1.7,0.4,3.3,0,4.8-0.9
	c2.2-1.3,4-3.2,5.6-5.5c3.5-5.1,6.2-10.9,8.6-17c3-7.6,5.5-15.5,7.8-23.5c1.9-6.7,3.6-13.4,5.2-20.2c0.1-0.6,0.3-1.1,0.4-1.7
	c0-0.1,0.1-0.2,0.2-0.2c0.1,0,0.2,0.1,0.2,0.1c0.1,0.3,0.2,0.6,0.2,0.8c1,4.6,2.1,9.1,3.3,13.6c2.3,8.6,4.8,17.1,7.7,25.4
	c2,5.7,4.3,11.2,7,16.4c1.5,3,3.3,5.8,5.3,8.3c1.9,2.3,4.1,4.1,6.8,4.5c0.6,0.1,1.1,0.1,1.6,0c2.1-0.4,4.1-1.4,5.9-2.9
	c2.1-1.7,4-3.7,5.8-5.8c3.7-4.4,7-9.4,10.1-14.6c4.8-7.9,9.1-16.2,13.1-24.8c1.1-2.3,2.1-4.6,3.2-7c0.1-0.2,0.1-0.3,0.2-0.5
	c0.2-0.3,0.3-0.7,0.6-0.7c0.4,0.1,0.3,0.5,0.4,0.9c0.4,3.4,0.9,6.9,1.3,10.3c0.8,5.5,1.6,10.9,2.7,16.3c1.4,7.4,3,14.7,5.3,21.7
	c1,3.1,2.2,6.1,3.5,9c0.7,1.5,1.5,2.9,2.4,4.2c1,1.5,2.2,2.6,3.4,3.6c0.9,0.6,1.9,0.9,2.9,1c1.7,0.1,3.3-0.2,4.9-0.6
	c2.8-0.8,5.6-2.1,8.2-3.6c2.5-1.4,5-2.8,7.4-4.5c4.7-3.2,9.3-6.6,13.7-10.3C360.4,78.6,360.8,77.8,361.6,77.9L361.6,77.9z"></path>
<path class="st2 svg-elem-3" d="M198.9,391.7h67.4c22.9,0,41.5,18.6,41.5,41.5v0c0,22.9-18.6,41.5-41.5,41.5h-67.4c-22.9,0-41.5-18.6-41.5-41.5
	v0C157.4,410.3,176,391.7,198.9,391.7z"></path>
</svg>
