<?xml version="1.0" encoding="utf-8"?>
<!-- Generator: Adobe Illustrator 28.2.0, SVG Export Plug-In . SVG Version: 6.00 Build 0)  -->
<svg version="1.1" id="Calque_1" xmlns="http://www.w3.org/2000/svg" xmlns:xlink="http://www.w3.org/1999/xlink" x="0px" y="0px"
	 viewBox="0 0 1322.9 482.1" style="enable-background:new 0 0 1322.9 482.1;" xml:space="preserve">
<style type="text/css">
	.st0{fill:#FFFFFF;}
</style>
<g>
	<path class="st0" d="M485.8,194.5c-8.2-8.5-17.8-15.6-28.8-21.2c-16.8-8.6-35.6-12.9-56.4-12.9c-27.4,0-51.8,6.7-73.3,20.2
		c-21.5,13.5-38.3,31.9-50.6,55.2c-12.3,23.3-18.4,49.7-18.4,79.1s6.1,55.2,18.4,78.5c12.3,23.3,29.1,41.7,50.6,55.2
		s45.7,20.2,72.7,20.2c21.2,0,40.4-4.3,57.3-12.9c11-5.5,20.4-12.5,28.5-20.9v27.7h80.9V166.5h-80.9V194.5L485.8,194.5z M469.9,372
		c-13.9,15.1-32.1,22.7-54.6,22.7c-14.3,0-27.2-3.5-38.6-10.4c-11.5-7-20.3-16.3-26.7-28.2c-6.3-11.8-9.5-25.8-9.5-41.7
		s3.2-29.2,9.5-41.1c6.3-11.8,15.1-21.2,26.4-28.2c11.2-7,24.2-10.4,38.9-10.4s28.2,3.4,39.2,10.1c11,6.7,19.8,16.2,26.4,28.5
		c6.5,12.3,9.8,26.2,9.8,41.7C490.7,337.9,483.8,356.9,469.9,372L469.9,372z"/>
	<path class="st0" d="M258.1,393.5c-3.2-6-5.9-12.3-8.3-18.7c-6,5-12.5,9.1-19.6,12.3c-10.6,4.7-22.7,7-36.2,7
		c-14.7,0-27.9-3.5-39.6-10.4c-11.7-6.9-20.8-16.3-27.3-28.2c-6.5-11.9-9.8-25.5-9.8-41.1s3.3-29.2,9.8-41.1
		c6.5-11.8,15.6-21.2,27.3-27.9c11.7-6.7,24.8-10.1,39.6-10.1c13.1,0,25,2.2,35.9,6.7c7.5,3.1,14.1,7.3,19.9,12.5
		c2.3-6.4,5.1-12.7,8.3-18.7c9-17,20.4-31.3,34.2-43.1c-10.3-8.3-21.6-15.1-33.9-20.3c-19.6-8.4-41.1-12.6-64.4-12.6
		c-30.3,0-57.5,6.8-81.6,20.2c-24.1,13.5-43.1,32-57,55.5c-13.9,23.5-20.8,50-20.8,79.4s7,54.7,20.8,78.2
		c13.9,23.5,32.9,42.1,57,55.8c24.1,13.7,51.1,20.5,81,20.5c23.7,0,45.5-4.4,65.3-13.2c12-5.3,23-12.1,33-20.2
		C278.2,424.4,266.9,410.2,258.1,393.5L258.1,393.5z"/>
	<rect x="584" y="19.4" class="st0" width="80.3" height="443.4"/>
	<path class="st0" d="M723.2,26.7c-13.1,0-23.9,4.5-32.5,13.5c-8.6,9-12.9,19.8-12.9,32.5s4.3,24,12.9,32.8
		c8.6,8.8,19.4,13.2,32.5,13.2s24.4-4.4,32.8-13.2c8.4-8.8,12.6-19.7,12.6-32.8s-4.2-23.5-12.6-32.5
		C747.6,31.2,736.7,26.7,723.2,26.7z"/>
	<rect x="682.1" y="166.5" class="st0" width="81.6" height="296.2"/>
	<path class="st0" d="M1269.9,231.6c-12.3-22.5-29.4-40.1-51.5-52.7c-22.1-12.7-47-19-74.8-19c-29.4,0-56,6.8-79.7,20.2
		c-23.7,13.5-42.4,31.9-56.1,55.2s-20.5,49.7-20.5,79.1s6.9,56.4,20.8,79.7c13.9,23.3,33,41.7,57.3,55.2
		c24.3,13.5,52,20.2,83.1,20.2c24.1,0,46.4-4.3,66.8-12.9c20.4-8.6,38.2-21.5,53.3-38.6l-47.8-47.8c-9,10.6-19.6,18.4-31.9,23.3
		c-12.3,4.9-26,7.4-41.1,7.4c-16.8,0-31.5-3.5-44.2-10.4c-12.7-7-22.4-17.1-29.1-30.4c-2.7-5.3-4.8-10.9-6.4-17l216.5-0.5
		c1.6-6.5,2.7-12.6,3.1-18.1c0.4-5.5,0.6-10.9,0.6-16.2C1288.3,279.6,1282.2,254,1269.9,231.6L1269.9,231.6z M1101.3,237.7
		c11.8-7,25.8-10.4,41.7-10.4c15.1,0,27.8,3.1,38,9.2c10.2,6.1,18.2,15.1,23.9,27c2.8,5.7,4.9,12.1,6.4,19.1l-143.1,0.4
		c1.5-5.5,3.4-10.7,5.8-15.5C1080.3,254.5,1089.4,244.6,1101.3,237.7L1101.3,237.7z"/>
	<path class="st0" d="M931.3,132.8c0-14.7,4-26.1,12-34s19.3-12,34-12c4.3,0,8.3,0.4,11.9,1.1V13.1c-4.2-0.4-8.6-0.5-13.1-0.5
		c-25.3,0-47.4,5.3-66.2,16C891,39.2,876.4,53.7,866,72.1c-10.4,18.4-15.6,39.2-15.6,62.5v31.9h-68.1v70.5h68.1v225.7h80.9V237.1
		h63.8c0.3-0.6,0.6-1.2,1-1.8c6.5-11,14.2-21,22.9-29.8v-38.9h-87.7L931.3,132.8L931.3,132.8z"/>
</g>
</svg>
